<?xml version="1.0" standalone="no"?><!DOCTYPE svg PUBLIC "-//W3C//DTD SVG 1.1//EN" "http://www.w3.org/Graphics/SVG/1.1/DTD/svg11.dtd"><svg t="1585793833648" class="icon" viewBox="0 0 1024 1024" version="1.1" xmlns="http://www.w3.org/2000/svg" p-id="12944" xmlns:xlink="http://www.w3.org/1999/xlink" width="200" height="200"><defs><style type="text/css"></style></defs><path d="M745.472 628.736H307.2c-22.528 0-40.96-18.432-40.96-40.96s18.432-40.96 40.96-40.96h438.272c22.528 0 40.96 18.432 40.96 40.96s-18.432 40.96-40.96 40.96z" p-id="12945"></path><path d="M526.336 851.968c-22.528 0-40.96-18.432-40.96-40.96V370.688c0-22.528 18.432-40.96 40.96-40.96s40.96 18.432 40.96 40.96v438.272c0 24.576-18.432 43.008-40.96 43.008z" p-id="12946"></path><path d="M827.392 1021.952H225.28c-65.536 0-116.736-61.44-116.736-141.312V149.504C108.544 71.68 159.744 8.192 225.28 8.192h487.424c36.864 0 69.632 20.48 90.112 53.248l116.736 182.272c8.192 12.288 18.432 26.624 24.576 636.928-2.048 79.872-53.248 141.312-116.736 141.312zM225.28 90.112c-16.384 0-34.816 24.576-34.816 59.392V880.64c0 32.768 18.432 59.392 34.816 59.392h602.112c16.384 0 34.816-24.576 34.816-59.392-2.048-206.848-8.192-544.768-14.336-600.064l-112.64-176.128c-6.144-10.24-14.336-16.384-20.48-16.384H225.28z" p-id="12947"></path><path d="M712.704 311.296c-20.48 0-38.912-8.192-53.248-24.576-14.336-16.384-20.48-36.864-16.384-57.344l28.672-186.368 81.92 12.288-26.624 172.032 157.696-4.096 2.048 81.92-174.08 6.144z" p-id="12948"></path></svg>